<?xml version="1.0" standalone="no"?><svg xmlns="http://www.w3.org/2000/svg" viewBox="0 0 1440 320"><path fill="#f3f4f5" fill-opacity="1" d="M0,32L12,74.7C24,117,48,203,72,240C96,277,120,267,144,256C168,245,192,235,216,192C240,149,264,75,288,69.3C312,64,336,128,360,128C384,128,408,64,432,80C456,96,480,192,504,234.7C528,277,552,267,576,245.3C600,224,624,192,648,149.3C672,107,696,53,720,42.7C744,32,768,64,792,90.7C816,117,840,139,864,176C888,213,912,267,936,277.3C960,288,984,256,1008,229.3C1032,203,1056,181,1080,170.7C1104,160,1128,160,1152,144C1176,128,1200,96,1224,101.3C1248,107,1272,149,1296,160C1320,171,1344,149,1368,165.3C1392,181,1416,235,1428,261.3L1440,288L1440,320L1428,320C1416,320,1392,320,1368,320C1344,320,1320,320,1296,320C1272,320,1248,320,1224,320C1200,320,1176,320,1152,320C1128,320,1104,320,1080,320C1056,320,1032,320,1008,320C984,320,960,320,936,320C912,320,888,320,864,320C840,320,816,320,792,320C768,320,744,320,720,320C696,320,672,320,648,320C624,320,600,320,576,320C552,320,528,320,504,320C480,320,456,320,432,320C408,320,384,320,360,320C336,320,312,320,288,320C264,320,240,320,216,320C192,320,168,320,144,320C120,320,96,320,72,320C48,320,24,320,12,320L0,320Z"></path></svg>